<svg xmlns="http://www.w3.org/2000/svg" viewBox="0 0 1600 900" role="img" aria-labelledby="title desc">
  <title id="title">GPU et intelligence artificielle</title>
  <desc id="desc">Une carte graphique exécute des calculs matriciels reliés à un réseau neuronal lumineux.</desc>
  <defs>
    <linearGradient id="bg" x1="0" y1="0" x2="1" y2="1"><stop stop-color="#080b18"/><stop offset=".5" stop-color="#171435"/><stop offset="1" stop-color="#261044"/></linearGradient>
    <radialGradient id="halo"><stop stop-color="#a855f7" stop-opacity=".42"/><stop offset="1" stop-color="#a855f7" stop-opacity="0"/></radialGradient>
    <linearGradient id="board" x1="0" x2="1"><stop stop-color="#172554"/><stop offset="1" stop-color="#312e81"/></linearGradient>
    <linearGradient id="chip" x1="0" y1="0" x2="1" y2="1"><stop stop-color="#22d3ee"/><stop offset=".5" stop-color="#8b5cf6"/><stop offset="1" stop-color="#ec4899"/></linearGradient>
    <filter id="shadow"><feDropShadow dx="0" dy="22" stdDeviation="25" flood-color="#000" flood-opacity=".55"/></filter>
    <filter id="glow"><feGaussianBlur stdDeviation="9"/></filter>
    <pattern id="matrix" width="34" height="34" patternUnits="userSpaceOnUse"><rect width="3" height="3" x="4" y="4" fill="#67e8f9" opacity=".3"/><rect width="3" height="3" x="21" y="21" fill="#c084fc" opacity=".3"/></pattern>
  </defs>
  <rect width="1600" height="900" fill="url(#bg)"/><rect width="1600" height="900" fill="url(#matrix)"/>
  <ellipse cx="810" cy="450" rx="700" ry="440" fill="url(#halo)"/>
  <g opacity=".22" fill="#c4b5fd" font-family="monospace" font-size="24"><text x="70" y="90">0 1 1 0 1 0 0 1</text><text x="1220" y="820">1 0 0 1 1 1 0 1</text><text x="80" y="830">Σ Wᵢxᵢ + b</text></g>
  <g transform="translate(135 230)" filter="url(#shadow)">
    <path d="M0 90Q0 25 65 25h660q60 0 60 60v360q0 60-60 60H65q-65 0-65-65z" fill="url(#board)" stroke="#818cf8" stroke-width="7"/>
    <rect x="80" y="96" width="300" height="300" rx="25" fill="#111827" stroke="#6366f1" stroke-width="6"/>
    <circle cx="230" cy="246" r="115" fill="#0f172a" stroke="#a78bfa" stroke-width="12"/>
    <g fill="none" stroke="#c4b5fd" stroke-width="11" stroke-linecap="round"><path d="M230 142v208M126 246h208M157 173l146 146M303 173L157 319"/></g>
    <circle cx="230" cy="246" r="34" fill="#8b5cf6"/>
    <rect x="430" y="105" width="260" height="270" rx="22" fill="#0b1023" stroke="url(#chip)" stroke-width="9"/>
    <rect x="485" y="160" width="150" height="160" rx="12" fill="url(#chip)"/>
    <g fill="#fde68a"><circle cx="463" cy="137" r="7"/><circle cx="658" cy="137" r="7"/><circle cx="463" cy="343" r="7"/><circle cx="658" cy="343" r="7"/></g>
    <g stroke="#fbbf24" stroke-width="9"><path d="M95 505v55h600v-55"/><path d="M140 505v55M190 505v55M240 505v55M290 505v55M340 505v55M390 505v55M440 505v55M490 505v55M540 505v55M590 505v55M640 505v55"/></g>
  </g>
  <g stroke-linecap="round" filter="url(#glow)" opacity=".55"><path d="M895 442C1030 430 1040 270 1160 270M895 455c170 10 180 185 310 185M895 450h245" stroke="#c084fc" stroke-width="14" fill="none"/></g>
  <g transform="translate(1080 135)" stroke="#e9d5ff" stroke-width="5" fill="#581c87" filter="url(#shadow)">
    <g fill="none" opacity=".8"><path d="M90 100l155-55 145 85-20 180-145 90-155-80zM90 100l135 120 165-90M225 220l0 180M70 320l155-100 145 90M245 45l-20 175"/></g>
    <g fill="url(#chip)"><circle cx="90" cy="100" r="27"/><circle cx="245" cy="45" r="27"/><circle cx="390" cy="130" r="27"/><circle cx="225" cy="220" r="40"/><circle cx="70" cy="320" r="27"/><circle cx="225" cy="400" r="27"/><circle cx="370" cy="310" r="27"/></g>
    <g fill="#f8fafc"><circle cx="90" cy="100" r="7"/><circle cx="245" cy="45" r="7"/><circle cx="390" cy="130" r="7"/><circle cx="225" cy="220" r="10"/><circle cx="70" cy="320" r="7"/><circle cx="225" cy="400" r="7"/><circle cx="370" cy="310" r="7"/></g>
  </g>
  <g transform="translate(1020 650)" opacity=".82">
    <g fill="#22d3ee"><rect x="0" y="0" width="38" height="38" rx="5"/><rect x="50" y="0" width="38" height="38" rx="5"/><rect x="100" y="0" width="38" height="38" rx="5"/><rect x="150" y="0" width="38" height="38" rx="5"/></g>
    <g fill="#8b5cf6"><rect x="0" y="50" width="38" height="38" rx="5"/><rect x="50" y="50" width="38" height="38" rx="5"/><rect x="100" y="50" width="38" height="38" rx="5"/><rect x="150" y="50" width="38" height="38" rx="5"/></g>
    <path d="M225 44h120m-32-32 32 32-32 32" fill="none" stroke="#fbbf24" stroke-width="12" stroke-linecap="round" stroke-linejoin="round"/>
    <g fill="#ec4899"><rect x="390" y="0" width="38" height="38" rx="5"/><rect x="440" y="0" width="38" height="38" rx="5"/><rect x="390" y="50" width="38" height="38" rx="5"/><rect x="440" y="50" width="38" height="38" rx="5"/></g>
  </g>
</svg>
